<?xml version="1.0" encoding="utf-8"?>
<!-- Generator: Adobe Illustrator 26.0.3, SVG Export Plug-In . SVG Version: 6.00 Build 0)  -->
<svg version="1.1" id="logo-javascript-2022" xmlns="http://www.w3.org/2000/svg" xmlns:xlink="http://www.w3.org/1999/xlink"
	 x="0px" y="0px" viewBox="0 0 165.7 178.3" enable-background="new 0 0 165.7 178.3" xml:space="preserve">
<g>
	<path fill="#1AD4D4" d="M56.8,162.8h-0.6l-1.6-2.1l-0.5,0.4v1.7h-0.5v-4.4h0.5v2.2l2-2.2h0.6l-1.8,1.9L56.8,162.8z"/>
	<path fill="#1AD4D4" d="M63.9,158.5v2.8c0,0.5-0.2,0.9-0.5,1.2s-0.7,0.4-1.2,0.4c-0.5,0-0.9-0.1-1.2-0.4c-0.3-0.3-0.4-0.7-0.4-1.2
		v-2.8H61v2.9c0,0.4,0.1,0.6,0.3,0.8c0.2,0.2,0.5,0.3,0.9,0.3c0.4,0,0.7-0.1,0.9-0.3c0.2-0.2,0.3-0.5,0.3-0.8v-2.8H63.9z"/>
	<path fill="#1AD4D4" d="M68.7,161v1.8h-0.5v-4.4h1.2c0.5,0,0.9,0.1,1.2,0.3c0.3,0.2,0.4,0.5,0.4,0.9c0,0.6-0.3,1-0.9,1.2l1.2,2
		h-0.6l-1.1-1.8H68.7z M68.7,160.6h0.7c0.4,0,0.6-0.1,0.8-0.2s0.3-0.4,0.3-0.6c0-0.3-0.1-0.5-0.3-0.6c-0.2-0.1-0.4-0.2-0.8-0.2h-0.7
		V160.6z"/>
	<path fill="#1AD4D4" d="M77.6,161.7c0,0.4-0.1,0.7-0.4,0.9c-0.3,0.2-0.7,0.3-1.1,0.3c-0.5,0-0.9-0.1-1.2-0.2v-0.5
		c0.2,0.1,0.4,0.1,0.6,0.2s0.4,0.1,0.6,0.1c0.3,0,0.6-0.1,0.8-0.2c0.2-0.1,0.3-0.3,0.3-0.5c0-0.2,0-0.3-0.1-0.4
		c-0.1-0.1-0.2-0.2-0.3-0.3s-0.4-0.2-0.7-0.3c-0.4-0.1-0.7-0.3-0.9-0.5c-0.2-0.2-0.3-0.5-0.3-0.8c0-0.3,0.1-0.6,0.4-0.8
		c0.3-0.2,0.6-0.3,1-0.3c0.4,0,0.8,0.1,1.2,0.2l-0.2,0.4c-0.4-0.2-0.7-0.2-1.1-0.2c-0.3,0-0.5,0.1-0.6,0.2c-0.2,0.1-0.2,0.3-0.2,0.5
		c0,0.2,0,0.3,0.1,0.4s0.1,0.2,0.3,0.3c0.1,0.1,0.3,0.2,0.6,0.3c0.5,0.2,0.8,0.3,0.9,0.5C77.6,161.1,77.6,161.4,77.6,161.7z"/>
	<path fill="#1AD4D4" d="M89.1,162.8h-2.9v-0.4l1.2-1.2c0.4-0.4,0.6-0.6,0.7-0.8c0.1-0.2,0.2-0.3,0.3-0.4s0.1-0.3,0.1-0.5
		c0-0.2-0.1-0.4-0.2-0.6s-0.3-0.2-0.6-0.2c-0.2,0-0.4,0-0.5,0.1c-0.2,0.1-0.3,0.2-0.5,0.3l-0.3-0.3c0.4-0.3,0.8-0.5,1.3-0.5
		c0.4,0,0.7,0.1,1,0.3c0.2,0.2,0.4,0.5,0.4,0.8c0,0.3-0.1,0.6-0.2,0.8c-0.2,0.3-0.4,0.6-0.9,1l-1,0.9v0h2.3V162.8z"/>
	<path fill="#1AD4D4" d="M95.8,160.7c0,0.8-0.1,1.3-0.4,1.7s-0.6,0.6-1.1,0.6c-0.5,0-0.8-0.2-1.1-0.6c-0.2-0.4-0.4-0.9-0.4-1.7
		c0-0.8,0.1-1.3,0.4-1.7s0.6-0.6,1.1-0.6c0.5,0,0.8,0.2,1.1,0.6C95.7,159.4,95.8,159.9,95.8,160.7z M93.4,160.7
		c0,0.6,0.1,1.1,0.2,1.4c0.2,0.3,0.4,0.4,0.7,0.4c0.3,0,0.6-0.1,0.7-0.4s0.2-0.8,0.2-1.4c0-0.6-0.1-1.1-0.2-1.4
		c-0.1-0.3-0.4-0.4-0.7-0.4c-0.3,0-0.6,0.1-0.7,0.4C93.5,159.6,93.4,160,93.4,160.7z"/>
	<path fill="#1AD4D4" d="M102.5,162.8h-2.9v-0.4l1.2-1.2c0.4-0.4,0.6-0.6,0.7-0.8c0.1-0.2,0.2-0.3,0.3-0.4s0.1-0.3,0.1-0.5
		c0-0.2-0.1-0.4-0.2-0.6s-0.3-0.2-0.6-0.2c-0.2,0-0.4,0-0.5,0.1c-0.2,0.1-0.3,0.2-0.5,0.3l-0.3-0.3c0.4-0.3,0.8-0.5,1.3-0.5
		c0.4,0,0.7,0.1,1,0.3c0.2,0.2,0.4,0.5,0.4,0.8c0,0.3-0.1,0.6-0.2,0.8c-0.2,0.3-0.4,0.6-0.9,1l-1,0.9v0h2.3V162.8z"/>
	<path fill="#1AD4D4" d="M109.2,162.8h-2.9v-0.4l1.2-1.2c0.4-0.4,0.6-0.6,0.7-0.8c0.1-0.2,0.2-0.3,0.3-0.4s0.1-0.3,0.1-0.5
		c0-0.2-0.1-0.4-0.2-0.6s-0.3-0.2-0.6-0.2c-0.2,0-0.4,0-0.5,0.1c-0.2,0.1-0.3,0.2-0.5,0.3l-0.3-0.3c0.4-0.3,0.8-0.5,1.3-0.5
		c0.4,0,0.7,0.1,1,0.3c0.2,0.2,0.4,0.5,0.4,0.8c0,0.3-0.1,0.6-0.2,0.8c-0.2,0.3-0.4,0.6-0.9,1l-1,0.9v0h2.3V162.8z"/>
</g>
<g fill="#fff">
	<path  d="M13.3,153.2v-3c0.4,0.1,0.7,0.1,1.1,0.1c1.3,0,1.9-0.6,1.9-2v-16h3.3v15.9c0,3.4-1.6,5.1-4.8,5.1
		C14.2,153.3,13.8,153.3,13.3,153.2z"/>
	<path  d="M28,132.3h4.4l3.4,20.9h-3.3L32,149v0.1h-3.7l-0.6,4.1h-3L28,132.3z M31.6,146.3l-1.5-10.3h-0.1l-1.4,10.3
		H31.6z"/>
	<path  d="M39.3,132.3h3.3l2.1,16.2h0.1l2.1-16.2h3l-3.2,20.9h-4.4L39.3,132.3z"/>
	<path  d="M56.9,132.3h4.4l3.4,20.9h-3.3l-0.6-4.1v0.1h-3.7l-0.6,4.1h-3L56.9,132.3z M60.5,146.3L59,135.9H59
		l-1.4,10.3H60.5z"/>
	<path  d="M69.3,148.2V147h3.1v1.4c0,1.5,0.7,2,1.7,2s1.7-0.5,1.7-2.1c0-1.7-0.7-2.8-2.8-4.7
		c-2.7-2.4-3.6-4.1-3.6-6.5c0-3.3,1.7-5.2,4.9-5.2c3.2,0,4.8,1.9,4.8,5.3v0.9h-3.1V137c0-1.5-0.6-2.1-1.6-2.1c-1,0-1.6,0.6-1.6,2
		c0,1.5,0.7,2.6,2.8,4.5c2.7,2.4,3.6,4.1,3.6,6.7c0,3.4-1.7,5.3-5,5.3S69.3,151.6,69.3,148.2z"/>
	<path d="M84.3,148.4v-11.2c0-3.2,1.7-5.1,4.8-5.1c3.2,0,4.8,1.9,4.8,5.1v2.2h-3.1v-2.4c0-1.4-0.7-1.9-1.6-1.9
		c-1,0-1.6,0.6-1.6,1.9v11.7c0,1.4,0.7,1.9,1.6,1.9c1,0,1.6-0.5,1.6-1.9v-3.2H94v3c0,3.2-1.7,5.1-4.8,5.1
		C86,153.5,84.3,151.6,84.3,148.4z"/>
	<path d="M99.5,132.3h4.9c3.4,0,4.9,1.6,4.9,4.8v1.3c0,2.1-0.7,3.5-2.1,4.1v0.1c1.6,0.5,2.2,2.1,2.2,4.4v3.7
		c0,1,0,1.8,0.4,2.5h-3.3c-0.2-0.5-0.3-0.9-0.3-2.6v-3.8c0-1.9-0.6-2.6-2.1-2.6h-1.1v9h-3.3V132.3z M104,141.2c1.2,0,2-0.5,2-2.2
		v-1.6c0-1.5-0.5-2.1-1.7-2.1h-1.5v6H104z"/>
	<path  d="M115.1,132.3h3.3v20.9h-3.3V132.3z"/>
	<path  d="M124.5,132.3h4.8c3.3,0,4.9,1.8,4.9,5.2v2.1c0,3.3-1.6,5.2-4.9,5.2h-1.6v8.5h-3.3V132.3z M129.3,141.7
		c1,0,1.6-0.5,1.6-2v-2.5c0-1.5-0.6-2-1.6-2h-1.6v6.4H129.3z"/>
	<path d="M142.2,135.3h-3.4v-3h10.1v3h-3.4v17.9h-3.3V135.3z"/>
</g>
<g id="arrows">
	<g id="arrow-left">
		<path fill="#3F7373" d="M80.8,40.3c-6.1-5.4-6.1-15.5,0-21l6.2-5.5l34.7,30.7c6.1,5.4,6.1,15.5,0,21l-6.2,5.5L80.8,40.3z"/>
		<path fill="#559997" d="M80.8,70.2c-6.1,5.4-6.1,15.5,0,21l6.2,5.5l34.7-30.7c6.1-5.4,6.1-15.5,0-21l-6.2-5.5L80.8,70.2z"/>
	</g>
	<g id="arrow-right">
		<path fill="#318CD3" d="M71.6,89.7c6.1,5.4,6.1,15.5,0,21l-6.2,5.5L30.8,85.4c-6.1-5.4-6.1-15.5,0-21l6.2-5.5L71.6,89.7z"/>
		<path fill="#70BDE8" d="M71.6,59.8c6.1-5.4,6.1-15.5,0-21l-6.2-5.5L30.8,64.1c-6.1,5.4-6.1,15.5,0,21l6.2,5.5L71.6,59.8z"/>
	</g>
</g>
</svg>
